<mxfile host="app.diagrams.net" modified="2024-03-19T08:16:20.932Z" agent="Mozilla/5.0 (Windows NT 10.0; Win64; x64) AppleWebKit/537.36 (KHTML, like Gecko) Chrome/122.0.0.0 Safari/537.36" etag="g5b1m_Y2BKnh5FFct-9o" version="24.0.7" type="device">
  <diagram name="Page-1" id="oX_F28au3fJqa2BAN_ND">
    <mxGraphModel dx="880" dy="434" grid="1" gridSize="10" guides="1" tooltips="1" connect="1" arrows="1" fold="1" page="1" pageScale="1" pageWidth="827" pageHeight="1169" background="#ffffff" math="0" shadow="0">
      <root>
        <mxCell id="0" />
        <mxCell id="1" parent="0" />
        <mxCell id="mbrZKOiWHF146jxl8j5U-6" value="" style="edgeStyle=orthogonalEdgeStyle;rounded=0;orthogonalLoop=1;jettySize=auto;html=1;" parent="1" source="mbrZKOiWHF146jxl8j5U-2" target="mbrZKOiWHF146jxl8j5U-7" edge="1">
          <mxGeometry relative="1" as="geometry">
            <mxPoint x="370" y="170" as="targetPoint" />
          </mxGeometry>
        </mxCell>
        <mxCell id="mbrZKOiWHF146jxl8j5U-2" value="Start" style="rounded=1;whiteSpace=wrap;html=1;absoluteArcSize=1;arcSize=14;strokeWidth=2;direction=south;" parent="1" vertex="1">
          <mxGeometry x="290" y="20" width="150" height="30" as="geometry" />
        </mxCell>
        <mxCell id="mbrZKOiWHF146jxl8j5U-7" value="Generate a random word" style="rounded=0;whiteSpace=wrap;html=1;" parent="1" vertex="1">
          <mxGeometry x="305" y="90" width="120" height="60" as="geometry" />
        </mxCell>
        <mxCell id="mbrZKOiWHF146jxl8j5U-23" value="" style="edgeStyle=orthogonalEdgeStyle;rounded=0;orthogonalLoop=1;jettySize=auto;html=1;" parent="1" source="mbrZKOiWHF146jxl8j5U-7" target="mbrZKOiWHF146jxl8j5U-12" edge="1">
          <mxGeometry relative="1" as="geometry">
            <mxPoint x="365" y="150" as="sourcePoint" />
            <mxPoint x="370" y="270" as="targetPoint" />
            <Array as="points" />
          </mxGeometry>
        </mxCell>
        <mxCell id="mbrZKOiWHF146jxl8j5U-25" value="" style="edgeStyle=orthogonalEdgeStyle;rounded=0;orthogonalLoop=1;jettySize=auto;html=1;" parent="1" source="mbrZKOiWHF146jxl8j5U-12" target="mbrZKOiWHF146jxl8j5U-24" edge="1">
          <mxGeometry relative="1" as="geometry" />
        </mxCell>
        <mxCell id="mbrZKOiWHF146jxl8j5U-12" value="Generate as many blanks as letter in word" style="whiteSpace=wrap;html=1;rounded=0;" parent="1" vertex="1">
          <mxGeometry x="305" y="200" width="120" height="60" as="geometry" />
        </mxCell>
        <mxCell id="mbrZKOiWHF146jxl8j5U-27" value="" style="edgeStyle=orthogonalEdgeStyle;rounded=0;orthogonalLoop=1;jettySize=auto;html=1;" parent="1" source="mbrZKOiWHF146jxl8j5U-24" target="mbrZKOiWHF146jxl8j5U-26" edge="1">
          <mxGeometry relative="1" as="geometry" />
        </mxCell>
        <mxCell id="mbrZKOiWHF146jxl8j5U-24" value="Ask the user to guess a word" style="whiteSpace=wrap;html=1;rounded=0;" parent="1" vertex="1">
          <mxGeometry x="305" y="300" width="120" height="60" as="geometry" />
        </mxCell>
        <mxCell id="mbrZKOiWHF146jxl8j5U-29" value="" style="edgeStyle=orthogonalEdgeStyle;rounded=0;orthogonalLoop=1;jettySize=auto;html=1;" parent="1" source="mbrZKOiWHF146jxl8j5U-26" target="mbrZKOiWHF146jxl8j5U-28" edge="1">
          <mxGeometry relative="1" as="geometry" />
        </mxCell>
        <mxCell id="mbrZKOiWHF146jxl8j5U-51" value="Yes" style="edgeLabel;html=1;align=center;verticalAlign=middle;resizable=0;points=[];" parent="mbrZKOiWHF146jxl8j5U-29" vertex="1" connectable="0">
          <mxGeometry x="-0.5582" y="-1" relative="1" as="geometry">
            <mxPoint as="offset" />
          </mxGeometry>
        </mxCell>
        <mxCell id="mbrZKOiWHF146jxl8j5U-32" value="" style="edgeStyle=orthogonalEdgeStyle;rounded=0;orthogonalLoop=1;jettySize=auto;html=1;" parent="1" source="mbrZKOiWHF146jxl8j5U-26" target="mbrZKOiWHF146jxl8j5U-31" edge="1">
          <mxGeometry relative="1" as="geometry" />
        </mxCell>
        <mxCell id="mbrZKOiWHF146jxl8j5U-33" value="No" style="edgeLabel;html=1;align=center;verticalAlign=middle;resizable=0;points=[];" parent="mbrZKOiWHF146jxl8j5U-32" vertex="1" connectable="0">
          <mxGeometry x="-0.3756" relative="1" as="geometry">
            <mxPoint as="offset" />
          </mxGeometry>
        </mxCell>
        <mxCell id="mbrZKOiWHF146jxl8j5U-26" value="Is the guess letter&amp;nbsp;&lt;div&gt;in the word&lt;/div&gt;" style="rhombus;whiteSpace=wrap;html=1;rounded=0;" parent="1" vertex="1">
          <mxGeometry x="296.25" y="400" width="143.75" height="130" as="geometry" />
        </mxCell>
        <mxCell id="mbrZKOiWHF146jxl8j5U-35" value="" style="edgeStyle=orthogonalEdgeStyle;rounded=0;orthogonalLoop=1;jettySize=auto;html=1;" parent="1" source="mbrZKOiWHF146jxl8j5U-28" target="mbrZKOiWHF146jxl8j5U-34" edge="1">
          <mxGeometry relative="1" as="geometry" />
        </mxCell>
        <mxCell id="mbrZKOiWHF146jxl8j5U-28" value="Replace the blank with the letter" style="whiteSpace=wrap;html=1;rounded=0;" parent="1" vertex="1">
          <mxGeometry x="160" y="580" width="120" height="60" as="geometry" />
        </mxCell>
        <mxCell id="mbrZKOiWHF146jxl8j5U-46" value="" style="edgeStyle=orthogonalEdgeStyle;rounded=0;orthogonalLoop=1;jettySize=auto;html=1;" parent="1" source="mbrZKOiWHF146jxl8j5U-31" target="mbrZKOiWHF146jxl8j5U-45" edge="1">
          <mxGeometry relative="1" as="geometry" />
        </mxCell>
        <mxCell id="mbrZKOiWHF146jxl8j5U-31" value="User loses a life" style="whiteSpace=wrap;html=1;rounded=0;" parent="1" vertex="1">
          <mxGeometry x="470.01" y="580" width="120" height="60" as="geometry" />
        </mxCell>
        <mxCell id="mbrZKOiWHF146jxl8j5U-36" style="edgeStyle=orthogonalEdgeStyle;rounded=0;orthogonalLoop=1;jettySize=auto;html=1;entryX=0;entryY=0.5;entryDx=0;entryDy=0;" parent="1" source="mbrZKOiWHF146jxl8j5U-34" target="mbrZKOiWHF146jxl8j5U-24" edge="1">
          <mxGeometry relative="1" as="geometry">
            <mxPoint x="80" y="340" as="targetPoint" />
            <Array as="points">
              <mxPoint x="81" y="760" />
              <mxPoint x="81" y="330" />
            </Array>
          </mxGeometry>
        </mxCell>
        <mxCell id="mbrZKOiWHF146jxl8j5U-40" value="No" style="edgeLabel;html=1;align=center;verticalAlign=middle;resizable=0;points=[];" parent="mbrZKOiWHF146jxl8j5U-36" vertex="1" connectable="0">
          <mxGeometry x="-0.8681" y="-3" relative="1" as="geometry">
            <mxPoint as="offset" />
          </mxGeometry>
        </mxCell>
        <mxCell id="mbrZKOiWHF146jxl8j5U-53" style="edgeStyle=orthogonalEdgeStyle;rounded=0;orthogonalLoop=1;jettySize=auto;html=1;exitX=0.5;exitY=1;exitDx=0;exitDy=0;entryX=0;entryY=0.5;entryDx=0;entryDy=0;" parent="1" source="mbrZKOiWHF146jxl8j5U-34" target="mbrZKOiWHF146jxl8j5U-41" edge="1">
          <mxGeometry relative="1" as="geometry" />
        </mxCell>
        <mxCell id="mbrZKOiWHF146jxl8j5U-55" value="Yes&lt;div&gt;&lt;br&gt;&lt;/div&gt;" style="edgeLabel;html=1;align=center;verticalAlign=middle;resizable=0;points=[];" parent="mbrZKOiWHF146jxl8j5U-53" vertex="1" connectable="0">
          <mxGeometry x="-0.6067" relative="1" as="geometry">
            <mxPoint as="offset" />
          </mxGeometry>
        </mxCell>
        <mxCell id="mbrZKOiWHF146jxl8j5U-34" value="Are all the&amp;nbsp;&lt;div&gt;blanks filled?&lt;/div&gt;" style="rhombus;whiteSpace=wrap;html=1;rounded=0;" parent="1" vertex="1">
          <mxGeometry x="170" y="710" width="100" height="100" as="geometry" />
        </mxCell>
        <mxCell id="mbrZKOiWHF146jxl8j5U-41" value="Game Over" style="rounded=0;whiteSpace=wrap;html=1;" parent="1" vertex="1">
          <mxGeometry x="330" y="970" width="120" height="60" as="geometry" />
        </mxCell>
        <mxCell id="mbrZKOiWHF146jxl8j5U-47" style="edgeStyle=orthogonalEdgeStyle;rounded=0;orthogonalLoop=1;jettySize=auto;html=1;entryX=1;entryY=0.5;entryDx=0;entryDy=0;" parent="1" source="mbrZKOiWHF146jxl8j5U-45" target="mbrZKOiWHF146jxl8j5U-24" edge="1">
          <mxGeometry relative="1" as="geometry">
            <mxPoint x="680" y="330" as="targetPoint" />
            <Array as="points">
              <mxPoint x="681" y="755" />
              <mxPoint x="681" y="330" />
            </Array>
          </mxGeometry>
        </mxCell>
        <mxCell id="mbrZKOiWHF146jxl8j5U-50" value="Yes" style="edgeLabel;html=1;align=center;verticalAlign=middle;resizable=0;points=[];" parent="mbrZKOiWHF146jxl8j5U-47" vertex="1" connectable="0">
          <mxGeometry x="-0.8721" y="-2" relative="1" as="geometry">
            <mxPoint as="offset" />
          </mxGeometry>
        </mxCell>
        <mxCell id="mbrZKOiWHF146jxl8j5U-45" value="Is there life&lt;div&gt;left&lt;/div&gt;" style="rhombus;whiteSpace=wrap;html=1;rounded=0;" parent="1" vertex="1">
          <mxGeometry x="480.02" y="710" width="99.99" height="90" as="geometry" />
        </mxCell>
        <mxCell id="mbrZKOiWHF146jxl8j5U-54" style="edgeStyle=orthogonalEdgeStyle;rounded=0;orthogonalLoop=1;jettySize=auto;html=1;exitX=0.5;exitY=1;exitDx=0;exitDy=0;entryX=1;entryY=0.5;entryDx=0;entryDy=0;" parent="1" source="mbrZKOiWHF146jxl8j5U-45" target="mbrZKOiWHF146jxl8j5U-41" edge="1">
          <mxGeometry relative="1" as="geometry" />
        </mxCell>
        <mxCell id="mbrZKOiWHF146jxl8j5U-56" value="No" style="edgeLabel;html=1;align=center;verticalAlign=middle;resizable=0;points=[];" parent="mbrZKOiWHF146jxl8j5U-54" vertex="1" connectable="0">
          <mxGeometry x="-0.6214" y="-3" relative="1" as="geometry">
            <mxPoint as="offset" />
          </mxGeometry>
        </mxCell>
      </root>
    </mxGraphModel>
  </diagram>
</mxfile>
